<mxfile host="app.diagrams.net" agent="Mozilla/5.0 (Windows NT 10.0; Win64; x64) AppleWebKit/537.36 (KHTML, like Gecko) Chrome/131.0.0.0 Safari/537.36" version="26.0.4">
  <diagram name="Page-1" id="9_S4-oZMPIDF2kMcaeqE">
    <mxGraphModel dx="2018" dy="1138" grid="1" gridSize="10" guides="1" tooltips="1" connect="1" arrows="1" fold="1" page="1" pageScale="1" pageWidth="850" pageHeight="1100" math="0" shadow="0">
      <root>
        <mxCell id="0" />
        <mxCell id="1" parent="0" />
        <mxCell id="RaB8Zx3YZueJD3Fqz5m5-1" value="Start Validation and Verification" style="fillColor=none;strokeColor=default;strokeWidth=3;fontSize=17;fontStyle=1" vertex="1" parent="1">
          <mxGeometry x="766" y="38" width="274" height="42" as="geometry" />
        </mxCell>
        <mxCell id="RaB8Zx3YZueJD3Fqz5m5-2" value="Functional Testing under &#xa;Simulated Real-World &#xa;Conditions" style="fillColor=none;strokeColor=default;strokeWidth=3;fontSize=17;fontStyle=1" vertex="1" parent="1">
          <mxGeometry x="773" y="148" width="260" height="72" as="geometry" />
        </mxCell>
        <mxCell id="RaB8Zx3YZueJD3Fqz5m5-3" value="Hardware Performance Validation" style="fillColor=none;strokeColor=default;strokeWidth=3;fontSize=17;fontStyle=1" vertex="1" parent="1">
          <mxGeometry x="284" y="318" width="326" height="42" as="geometry" />
        </mxCell>
        <mxCell id="RaB8Zx3YZueJD3Fqz5m5-4" value="Firmware Performance Validation" style="fillColor=none;strokeColor=default;strokeWidth=3;fontSize=17;fontStyle=1" vertex="1" parent="1">
          <mxGeometry x="1216" y="318" width="284" height="42" as="geometry" />
        </mxCell>
        <mxCell id="RaB8Zx3YZueJD3Fqz5m5-5" value="Servo Motor Accuracy Check" style="fillColor=none;strokeColor=default;strokeWidth=3;fontSize=17;fontStyle=1" vertex="1" parent="1">
          <mxGeometry x="20" y="444" width="260" height="46" as="geometry" />
        </mxCell>
        <mxCell id="RaB8Zx3YZueJD3Fqz5m5-6" value="Mirror Alignment Testing" style="fillColor=none;strokeColor=default;strokeWidth=3;fontSize=17;fontStyle=1" vertex="1" parent="1">
          <mxGeometry x="330" y="444" width="234" height="46" as="geometry" />
        </mxCell>
        <mxCell id="RaB8Zx3YZueJD3Fqz5m5-7" value="Pressure Sensor Responsiveness" style="fillColor=none;strokeColor=default;strokeWidth=3;fontSize=17;fontStyle=1" vertex="1" parent="1">
          <mxGeometry x="600" y="444" width="288" height="46" as="geometry" />
        </mxCell>
        <mxCell id="RaB8Zx3YZueJD3Fqz5m5-8" value="Scanning Algorithm Validation" style="fillColor=none;strokeColor=default;strokeWidth=3;fontSize=17;fontStyle=1" vertex="1" parent="1">
          <mxGeometry x="924" y="444" width="260" height="46" as="geometry" />
        </mxCell>
        <mxCell id="RaB8Zx3YZueJD3Fqz5m5-9" value="Image Stitching Validation" style="fillColor=none;strokeColor=default;strokeWidth=3;fontSize=17;fontStyle=1" vertex="1" parent="1">
          <mxGeometry x="1234" y="440" width="247" height="54" as="geometry" />
        </mxCell>
        <mxCell id="RaB8Zx3YZueJD3Fqz5m5-10" value="Data Transmission to &#xa;Cloud Validation" style="fillColor=none;strokeColor=default;strokeWidth=3;fontSize=17;fontStyle=1" vertex="1" parent="1">
          <mxGeometry x="1552" y="434" width="218" height="66" as="geometry" />
        </mxCell>
        <mxCell id="RaB8Zx3YZueJD3Fqz5m5-11" value="End-to-End System Testing" style="fillColor=none;strokeColor=default;strokeWidth=3;fontSize=17;fontStyle=1" vertex="1" parent="1">
          <mxGeometry x="775" y="566" width="249" height="34" as="geometry" />
        </mxCell>
        <mxCell id="RaB8Zx3YZueJD3Fqz5m5-12" value="Clinical Testing" style="fillColor=none;strokeColor=default;strokeWidth=3;fontSize=17;fontStyle=1" vertex="1" parent="1">
          <mxGeometry x="818" y="664" width="162" height="46" as="geometry" />
        </mxCell>
        <mxCell id="RaB8Zx3YZueJD3Fqz5m5-13" value="Environmental Testing" style="fillColor=none;strokeColor=default;strokeWidth=3;fontSize=17;fontStyle=1" vertex="1" parent="1">
          <mxGeometry x="798" y="764" width="202" height="36" as="geometry" />
        </mxCell>
        <mxCell id="RaB8Zx3YZueJD3Fqz5m5-14" value="Stress Testing" style="fillColor=none;strokeColor=default;strokeWidth=3;fontSize=17;fontStyle=1" vertex="1" parent="1">
          <mxGeometry x="829" y="868" width="141" height="32" as="geometry" />
        </mxCell>
        <mxCell id="RaB8Zx3YZueJD3Fqz5m5-15" value="Usability Testing" style="fillColor=none;strokeColor=default;strokeWidth=3;fontSize=17;fontStyle=1" vertex="1" parent="1">
          <mxGeometry x="819" y="972" width="161" height="38" as="geometry" />
        </mxCell>
        <mxCell id="RaB8Zx3YZueJD3Fqz5m5-16" value="Clinical Validation Study" style="fillColor=none;strokeColor=default;strokeWidth=3;fontSize=17;fontStyle=1" vertex="1" parent="1">
          <mxGeometry x="790" y="1076" width="218" height="44" as="geometry" />
        </mxCell>
        <mxCell id="RaB8Zx3YZueJD3Fqz5m5-17" value="Regulatory Compliance Check" style="fillColor=none;strokeColor=default;strokeWidth=3;fontSize=17;fontStyle=1" vertex="1" parent="1">
          <mxGeometry x="770" y="1180" width="258" height="50" as="geometry" />
        </mxCell>
        <mxCell id="RaB8Zx3YZueJD3Fqz5m5-18" value="Traceability of Components &#xa;and Software Changes" style="fillColor=none;strokeColor=default;strokeWidth=3;fontSize=17;fontStyle=1" vertex="1" parent="1">
          <mxGeometry x="769" y="1308" width="260" height="62" as="geometry" />
        </mxCell>
        <mxCell id="RaB8Zx3YZueJD3Fqz5m5-19" value="Documentation of Results" style="fillColor=none;strokeColor=default;strokeWidth=3;fontSize=17;fontStyle=1" vertex="1" parent="1">
          <mxGeometry x="780" y="1460" width="240" height="40" as="geometry" />
        </mxCell>
        <mxCell id="RaB8Zx3YZueJD3Fqz5m5-20" value="End of Process" style="fillColor=none;strokeColor=default;strokeWidth=3;fontSize=17;fontStyle=1" vertex="1" parent="1">
          <mxGeometry x="830" y="1564" width="139" height="36" as="geometry" />
        </mxCell>
        <mxCell id="RaB8Zx3YZueJD3Fqz5m5-21" value="" style="curved=1;startArrow=circle;startFill=0;endArrow=circle;endFill=0;rounded=0;strokeColor=default;strokeWidth=3;fontSize=17;entryX=0.502;entryY=0.035;entryDx=0;entryDy=0;entryPerimeter=0;fontStyle=1" edge="1" parent="1" source="RaB8Zx3YZueJD3Fqz5m5-1" target="RaB8Zx3YZueJD3Fqz5m5-2">
          <mxGeometry relative="1" as="geometry">
            <Array as="points" />
            <mxPoint x="902.85" y="97.99799999999996" as="sourcePoint" />
            <mxPoint x="902.85" y="145.97" as="targetPoint" />
          </mxGeometry>
        </mxCell>
        <mxCell id="RaB8Zx3YZueJD3Fqz5m5-22" value="" style="curved=1;startArrow=none;endArrow=circle;endFill=0;exitX=0;exitY=0.71;entryX=0.5;entryY=0;rounded=0;strokeColor=default;strokeWidth=3;fontSize=17;fontStyle=1" edge="1" parent="1" source="RaB8Zx3YZueJD3Fqz5m5-2" target="RaB8Zx3YZueJD3Fqz5m5-3">
          <mxGeometry relative="1" as="geometry">
            <Array as="points">
              <mxPoint x="447" y="275" />
            </Array>
          </mxGeometry>
        </mxCell>
        <mxCell id="RaB8Zx3YZueJD3Fqz5m5-23" value="" style="curved=1;startArrow=none;endArrow=circle;endFill=0;exitX=1;exitY=0.71;entryX=0.5;entryY=0;rounded=0;strokeColor=default;strokeWidth=3;fontSize=17;fontStyle=1" edge="1" parent="1" source="RaB8Zx3YZueJD3Fqz5m5-2" target="RaB8Zx3YZueJD3Fqz5m5-4">
          <mxGeometry relative="1" as="geometry">
            <Array as="points">
              <mxPoint x="1358" y="275" />
            </Array>
          </mxGeometry>
        </mxCell>
        <mxCell id="RaB8Zx3YZueJD3Fqz5m5-24" value="" style="curved=1;startArrow=none;endArrow=circle;endFill=0;exitX=0;exitY=0.86;entryX=0.5;entryY=0;rounded=0;strokeColor=default;strokeWidth=3;fontSize=17;fontStyle=1" edge="1" parent="1" source="RaB8Zx3YZueJD3Fqz5m5-3" target="RaB8Zx3YZueJD3Fqz5m5-5">
          <mxGeometry relative="1" as="geometry">
            <Array as="points">
              <mxPoint x="150" y="403" />
            </Array>
          </mxGeometry>
        </mxCell>
        <mxCell id="RaB8Zx3YZueJD3Fqz5m5-25" value="" style="curved=1;startArrow=none;endArrow=circle;endFill=0;exitX=0.5;exitY=1;entryX=0.5;entryY=0;rounded=0;strokeColor=default;strokeWidth=3;fontSize=17;fontStyle=1" edge="1" parent="1" source="RaB8Zx3YZueJD3Fqz5m5-3" target="RaB8Zx3YZueJD3Fqz5m5-6">
          <mxGeometry relative="1" as="geometry">
            <Array as="points" />
          </mxGeometry>
        </mxCell>
        <mxCell id="RaB8Zx3YZueJD3Fqz5m5-26" value="" style="curved=1;startArrow=none;endArrow=circle;endFill=0;exitX=1;exitY=0.86;entryX=0.5;entryY=0;rounded=0;strokeColor=default;strokeWidth=3;fontSize=17;fontStyle=1" edge="1" parent="1" source="RaB8Zx3YZueJD3Fqz5m5-3" target="RaB8Zx3YZueJD3Fqz5m5-7">
          <mxGeometry relative="1" as="geometry">
            <Array as="points">
              <mxPoint x="744" y="403" />
            </Array>
          </mxGeometry>
        </mxCell>
        <mxCell id="RaB8Zx3YZueJD3Fqz5m5-27" value="" style="curved=1;startArrow=none;endArrow=circle;endFill=0;exitX=0;exitY=0.85;entryX=0.5;entryY=0;rounded=0;strokeColor=default;strokeWidth=3;fontSize=17;fontStyle=1" edge="1" parent="1" source="RaB8Zx3YZueJD3Fqz5m5-4" target="RaB8Zx3YZueJD3Fqz5m5-8">
          <mxGeometry relative="1" as="geometry">
            <Array as="points">
              <mxPoint x="1054" y="403" />
            </Array>
          </mxGeometry>
        </mxCell>
        <mxCell id="RaB8Zx3YZueJD3Fqz5m5-28" value="" style="curved=1;startArrow=none;endArrow=circle;endFill=0;exitX=0.5;exitY=1;entryX=0.5;entryY=0;rounded=0;strokeColor=default;strokeWidth=3;fontSize=17;fontStyle=1" edge="1" parent="1" source="RaB8Zx3YZueJD3Fqz5m5-4" target="RaB8Zx3YZueJD3Fqz5m5-9">
          <mxGeometry relative="1" as="geometry">
            <Array as="points" />
          </mxGeometry>
        </mxCell>
        <mxCell id="RaB8Zx3YZueJD3Fqz5m5-29" value="" style="curved=1;startArrow=none;endArrow=circle;endFill=0;exitX=1;exitY=0.85;entryX=0.5;entryY=0;rounded=0;strokeColor=default;strokeWidth=3;fontSize=17;fontStyle=1" edge="1" parent="1" source="RaB8Zx3YZueJD3Fqz5m5-4" target="RaB8Zx3YZueJD3Fqz5m5-10">
          <mxGeometry relative="1" as="geometry">
            <Array as="points">
              <mxPoint x="1661" y="403" />
            </Array>
          </mxGeometry>
        </mxCell>
        <mxCell id="RaB8Zx3YZueJD3Fqz5m5-30" value="" style="curved=1;startArrow=none;endArrow=circle;endFill=0;exitX=0.5;exitY=1;entryX=-0.01;entryY=0.761;rounded=0;strokeColor=default;strokeWidth=3;fontSize=17;fontStyle=1;entryDx=0;entryDy=0;entryPerimeter=0;" edge="1" parent="1" source="RaB8Zx3YZueJD3Fqz5m5-5" target="RaB8Zx3YZueJD3Fqz5m5-11">
          <mxGeometry relative="1" as="geometry">
            <Array as="points">
              <mxPoint x="150" y="531" />
            </Array>
          </mxGeometry>
        </mxCell>
        <mxCell id="RaB8Zx3YZueJD3Fqz5m5-31" value="" style="curved=1;startArrow=none;endArrow=block;exitX=0.5;exitY=1;entryX=0;entryY=0.23;rounded=0;strokeColor=default;strokeWidth=3;fontSize=17;fontStyle=1" edge="1" parent="1" source="RaB8Zx3YZueJD3Fqz5m5-6" target="RaB8Zx3YZueJD3Fqz5m5-11">
          <mxGeometry relative="1" as="geometry">
            <Array as="points">
              <mxPoint x="447" y="531" />
            </Array>
          </mxGeometry>
        </mxCell>
        <mxCell id="RaB8Zx3YZueJD3Fqz5m5-32" value="" style="curved=1;startArrow=none;endArrow=block;exitX=0.5;exitY=1;entryX=0.18;entryY=0;rounded=0;strokeColor=default;strokeWidth=3;fontSize=17;fontStyle=1" edge="1" parent="1" source="RaB8Zx3YZueJD3Fqz5m5-7" target="RaB8Zx3YZueJD3Fqz5m5-11">
          <mxGeometry relative="1" as="geometry">
            <Array as="points">
              <mxPoint x="744" y="531" />
            </Array>
          </mxGeometry>
        </mxCell>
        <mxCell id="RaB8Zx3YZueJD3Fqz5m5-33" value="" style="curved=1;startArrow=none;endArrow=block;exitX=0.5;exitY=1;entryX=0.82;entryY=0;rounded=0;strokeColor=default;strokeWidth=3;fontSize=17;fontStyle=1" edge="1" parent="1" source="RaB8Zx3YZueJD3Fqz5m5-8" target="RaB8Zx3YZueJD3Fqz5m5-11">
          <mxGeometry relative="1" as="geometry">
            <Array as="points">
              <mxPoint x="1054" y="531" />
            </Array>
          </mxGeometry>
        </mxCell>
        <mxCell id="RaB8Zx3YZueJD3Fqz5m5-34" value="" style="curved=1;startArrow=none;endArrow=block;exitX=0.5;exitY=1;entryX=1;entryY=0.24;rounded=0;strokeColor=default;strokeWidth=3;fontSize=17;fontStyle=1" edge="1" parent="1" source="RaB8Zx3YZueJD3Fqz5m5-9" target="RaB8Zx3YZueJD3Fqz5m5-11">
          <mxGeometry relative="1" as="geometry">
            <Array as="points">
              <mxPoint x="1358" y="531" />
            </Array>
          </mxGeometry>
        </mxCell>
        <mxCell id="RaB8Zx3YZueJD3Fqz5m5-35" value="" style="curved=1;startArrow=none;endArrow=block;exitX=0.5;exitY=1;entryX=1;entryY=0.34;rounded=0;strokeColor=default;strokeWidth=3;fontSize=17;fontStyle=1" edge="1" parent="1" source="RaB8Zx3YZueJD3Fqz5m5-10" target="RaB8Zx3YZueJD3Fqz5m5-11">
          <mxGeometry relative="1" as="geometry">
            <Array as="points">
              <mxPoint x="1661" y="531" />
            </Array>
          </mxGeometry>
        </mxCell>
        <mxCell id="RaB8Zx3YZueJD3Fqz5m5-36" value="" style="curved=1;startArrow=none;endArrow=circle;endFill=0;exitX=0.5;exitY=1;entryX=0.5;entryY=0;rounded=0;strokeColor=default;strokeWidth=3;fontSize=17;fontStyle=1" edge="1" parent="1" source="RaB8Zx3YZueJD3Fqz5m5-11" target="RaB8Zx3YZueJD3Fqz5m5-12">
          <mxGeometry relative="1" as="geometry">
            <Array as="points" />
          </mxGeometry>
        </mxCell>
        <mxCell id="RaB8Zx3YZueJD3Fqz5m5-37" value="" style="curved=1;startArrow=none;endArrow=circle;endFill=0;exitX=0.5;exitY=1;entryX=0.5;entryY=0;rounded=0;strokeColor=default;strokeWidth=3;fontSize=17;fontStyle=1" edge="1" parent="1" source="RaB8Zx3YZueJD3Fqz5m5-12" target="RaB8Zx3YZueJD3Fqz5m5-13">
          <mxGeometry relative="1" as="geometry">
            <Array as="points" />
          </mxGeometry>
        </mxCell>
        <mxCell id="RaB8Zx3YZueJD3Fqz5m5-38" value="" style="curved=1;startArrow=none;endArrow=circle;endFill=0;exitX=0.5;exitY=1;entryX=0.5;entryY=0;rounded=0;strokeColor=default;strokeWidth=3;fontSize=17;fontStyle=1" edge="1" parent="1" source="RaB8Zx3YZueJD3Fqz5m5-13" target="RaB8Zx3YZueJD3Fqz5m5-14">
          <mxGeometry relative="1" as="geometry">
            <Array as="points" />
          </mxGeometry>
        </mxCell>
        <mxCell id="RaB8Zx3YZueJD3Fqz5m5-39" value="" style="curved=1;startArrow=none;endArrow=circle;endFill=0;exitX=0.5;exitY=1;entryX=0.5;entryY=0;rounded=0;strokeColor=default;strokeWidth=3;fontSize=17;fontStyle=1" edge="1" parent="1" source="RaB8Zx3YZueJD3Fqz5m5-14" target="RaB8Zx3YZueJD3Fqz5m5-15">
          <mxGeometry relative="1" as="geometry">
            <Array as="points" />
          </mxGeometry>
        </mxCell>
        <mxCell id="RaB8Zx3YZueJD3Fqz5m5-40" value="" style="curved=1;startArrow=none;endArrow=circle;endFill=0;entryX=0.5;entryY=0;rounded=0;strokeColor=default;strokeWidth=3;fontSize=17;fontStyle=1" edge="1" parent="1" source="RaB8Zx3YZueJD3Fqz5m5-15" target="RaB8Zx3YZueJD3Fqz5m5-16">
          <mxGeometry relative="1" as="geometry">
            <Array as="points" />
          </mxGeometry>
        </mxCell>
        <mxCell id="RaB8Zx3YZueJD3Fqz5m5-41" value="" style="curved=1;startArrow=none;endArrow=circle;endFill=0;exitX=0.5;exitY=1;entryX=0.5;entryY=0;rounded=0;strokeColor=default;strokeWidth=3;fontSize=17;fontStyle=1" edge="1" parent="1" source="RaB8Zx3YZueJD3Fqz5m5-16" target="RaB8Zx3YZueJD3Fqz5m5-17">
          <mxGeometry relative="1" as="geometry">
            <Array as="points" />
          </mxGeometry>
        </mxCell>
        <mxCell id="RaB8Zx3YZueJD3Fqz5m5-42" value="" style="curved=1;startArrow=none;endArrow=circle;endFill=0;exitX=0.5;exitY=1;entryX=0.5;entryY=0;rounded=0;strokeColor=default;strokeWidth=3;fontSize=17;fontStyle=1" edge="1" parent="1" source="RaB8Zx3YZueJD3Fqz5m5-17" target="RaB8Zx3YZueJD3Fqz5m5-18">
          <mxGeometry relative="1" as="geometry">
            <Array as="points" />
          </mxGeometry>
        </mxCell>
        <mxCell id="RaB8Zx3YZueJD3Fqz5m5-43" value="" style="curved=1;startArrow=none;endArrow=circle;endFill=0;exitX=0.5;exitY=1;entryX=0.5;entryY=0;rounded=0;strokeColor=default;strokeWidth=3;fontSize=17;fontStyle=1" edge="1" parent="1" source="RaB8Zx3YZueJD3Fqz5m5-18" target="RaB8Zx3YZueJD3Fqz5m5-19">
          <mxGeometry relative="1" as="geometry">
            <Array as="points" />
          </mxGeometry>
        </mxCell>
        <mxCell id="RaB8Zx3YZueJD3Fqz5m5-44" value="" style="curved=1;startArrow=none;endArrow=circle;endFill=0;exitX=0.5;exitY=1;entryX=0.5;entryY=0;rounded=0;strokeColor=default;strokeWidth=3;fontSize=17;fontStyle=1" edge="1" parent="1" source="RaB8Zx3YZueJD3Fqz5m5-19" target="RaB8Zx3YZueJD3Fqz5m5-20">
          <mxGeometry relative="1" as="geometry">
            <Array as="points" />
          </mxGeometry>
        </mxCell>
      </root>
    </mxGraphModel>
  </diagram>
</mxfile>
